<svg width="51" height="51" viewBox="0 0 51 51" fill="none" xmlns="http://www.w3.org/2000/svg">
<path opacity="0.4" d="M34.7231 4.24951H16.2994C9.09561 4.24951 4.25061 9.30701 4.25061 16.8295V34.1908C4.25061 41.692 9.09561 46.7495 16.2994 46.7495H34.7231C41.9269 46.7495 46.7506 41.692 46.7506 34.1908V16.8295C46.7506 9.30701 41.9269 4.24951 34.7231 4.24951Z" fill="#4CAF50"/>
<path d="M22.9785 32.4027C22.5025 32.4027 22.0265 32.2221 21.6631 31.8587L16.6205 26.8161C15.8937 26.0893 15.8937 24.9121 16.6205 24.1875C17.3472 23.4607 18.5223 23.4586 19.2491 24.1853L22.9785 27.9147L31.7505 19.1427C32.4772 18.416 33.6523 18.416 34.3791 19.1427C35.1058 19.8695 35.1058 21.0467 34.3791 21.7735L24.2938 31.8587C23.9305 32.2221 23.4545 32.4027 22.9785 32.4027Z" fill="#4CAF50"/>
</svg>
