<svg width="48" height="48" viewBox="0 0 48 48" fill="none" xmlns="http://www.w3.org/2000/svg">
<path opacity="0.4" d="M9.44539 42.335C9.41939 42.335 9.39539 42.335 9.36739 42.333C8.73739 42.301 8.11939 42.165 7.53139 41.927C4.63739 40.751 3.24139 37.445 4.41539 34.553L19.0574 8.90098C19.5614 7.98898 20.3254 7.22498 21.2574 6.70898C23.9874 5.19698 27.4394 6.19098 28.9494 8.91898L43.4954 34.375C43.8194 35.137 43.9574 35.757 43.9914 36.389C44.0694 37.901 43.5534 39.351 42.5414 40.473C41.5294 41.595 40.1394 42.257 38.6294 42.333L9.58939 42.335H9.44539Z" fill="#4A4DE6"/>
<path fill-rule="evenodd" clip-rule="evenodd" d="M22.249 20.041C22.249 19.077 23.035 18.291 23.999 18.291C24.963 18.291 25.749 19.077 25.749 20.041V25.697C25.749 26.663 24.963 27.447 23.999 27.447C23.035 27.447 22.249 26.663 22.249 25.697V20.041ZM22.249 32.5393C22.249 31.5693 23.035 30.7793 23.999 30.7793C24.963 30.7793 25.749 31.5593 25.749 32.5173C25.749 33.5033 24.963 34.2893 23.999 34.2893C23.035 34.2893 22.249 33.5033 22.249 32.5393Z" fill="#4A4DE6"/>
</svg>
