<svg width="38" height="38" viewBox="0 0 38 38" fill="none" xmlns="http://www.w3.org/2000/svg">
<path opacity="0.4" d="M31.655 30.0093H22.639C21.7594 30.0093 21.0439 30.736 21.0439 31.6296C21.0439 32.5249 21.7594 33.25 22.639 33.25H31.655C32.5346 33.25 33.2501 32.5249 33.2501 31.6296C33.2501 30.736 32.5346 30.0093 31.655 30.0093Z" fill="#FF7900"/>
<path d="M16.3226 10.9313L24.8661 17.8348C25.0722 17.9999 25.1073 18.3028 24.9465 18.5139L14.818 31.7115C14.1813 32.5268 13.243 32.988 12.2377 33.005L6.70852 33.0731C6.41363 33.0765 6.1556 32.8723 6.08858 32.5795L4.83195 27.116C4.61413 26.1118 4.83194 25.0735 5.46864 24.2736L15.6474 11.013C15.8116 10.8002 16.1149 10.7628 16.3226 10.9313Z" fill="#FF7900"/>
<path opacity="0.4" d="M28.691 13.7203L27.044 15.7763C26.8781 15.9857 26.5799 16.0197 26.3738 15.8529C24.3716 14.2326 19.2445 10.0745 17.822 8.92223C17.6142 8.75202 17.5857 8.44906 17.7533 8.23801L19.3417 6.26534C20.7826 4.41012 23.2959 4.23991 25.3233 5.85685L27.6522 7.71208C28.6073 8.46097 29.244 9.44816 29.4618 10.4864C29.7131 11.6285 29.445 12.7501 28.691 13.7203Z" fill="#FF7900"/>
</svg>
