<svg width="80" height="80" viewBox="0 0 80 80" fill="none" xmlns="http://www.w3.org/2000/svg">
<rect width="80" height="80" rx="40" fill="#F4F5F7"/>
<path d="M37 38H30C29.7348 38 29.4804 37.8946 29.2929 37.7071C29.1054 37.5196 29 37.2652 29 37V30C29 29.7348 29.1054 29.4804 29.2929 29.2929C29.4804 29.1054 29.7348 29 30 29H37C37.2652 29 37.5196 29.1054 37.7071 29.2929C37.8946 29.4804 38 29.7348 38 30V37C38 37.2652 37.8946 37.5196 37.7071 37.7071C37.5196 37.8946 37.2652 38 37 38Z" fill="#FF7900"/>
<path d="M37 51H30C29.7348 51 29.4804 50.8946 29.2929 50.7071C29.1054 50.5196 29 50.2652 29 50V43C29 42.7348 29.1054 42.4804 29.2929 42.2929C29.4804 42.1054 29.7348 42 30 42H37C37.2652 42 37.5196 42.1054 37.7071 42.2929C37.8946 42.4804 38 42.7348 38 43V50C38 50.2652 37.8946 50.5196 37.7071 50.7071C37.5196 50.8946 37.2652 51 37 51Z" fill="#FF7900"/>
<path d="M41 30H51V32H41V30Z" fill="#FFC0D0"/>
<path d="M51 43H41V45H51V43Z" fill="#FFC0D0"/>
<path d="M51 48H41V50H51V48Z" fill="#FFCEA1"/>
<path d="M51 35H41V37H51V35Z" fill="#FFCEA1"/>
</svg>
