<svg width="80" height="80" viewBox="0 0 80 80" fill="none" xmlns="http://www.w3.org/2000/svg">
<rect width="80" height="80" rx="40" fill="#F4F5F7"/>
<path d="M33 29H30C29.7348 29 29.4804 29.1054 29.2929 29.2929C29.1054 29.4804 29 29.7348 29 30V50C29 50.2652 29.1054 50.5196 29.2929 50.7071C29.4804 50.8946 29.7348 51 30 51H33V29Z" fill="#FFCEA1"/>
<path d="M35 51H45V29H35V51ZM40 47C39.7348 47 39.4804 46.8946 39.2929 46.7071C39.1054 46.5196 39 46.2652 39 46C39 45.7348 39.1054 45.4804 39.2929 45.2929C39.4804 45.1054 39.7348 45 40 45C40.2652 45 40.5196 45.1054 40.7071 45.2929C40.8946 45.4804 41 45.7348 41 46C41 46.2652 40.8946 46.5196 40.7071 46.7071C40.5196 46.8946 40.2652 47 40 47ZM40 33C40.2652 33 40.5196 33.1054 40.7071 33.2929C40.8946 33.4804 41 33.7348 41 34C41 34.2652 40.8946 34.5196 40.7071 34.7071C40.5196 34.8946 40.2652 35 40 35C39.7348 35 39.4804 34.8946 39.2929 34.7071C39.1054 34.5196 39 34.2652 39 34C39 33.7348 39.1054 33.4804 39.2929 33.2929C39.4804 33.1054 39.7348 33 40 33ZM40 39C40.2652 39 40.5196 39.1054 40.7071 39.2929C40.8946 39.4804 41 39.7348 41 40C41 40.2652 40.8946 40.5196 40.7071 40.7071C40.5196 40.8946 40.2652 41 40 41C39.7348 41 39.4804 40.8946 39.2929 40.7071C39.1054 40.5196 39 40.2652 39 40C39 39.7348 39.1054 39.4804 39.2929 39.2929C39.4804 39.1054 39.7348 39 40 39Z" fill="#FF7900"/>
<path d="M50 29H47V51H50C50.2652 51 50.5196 50.8946 50.7071 50.7071C50.8946 50.5196 51 50.2652 51 50V30C51 29.7348 50.8946 29.4804 50.7071 29.2929C50.5196 29.1054 50.2652 29 50 29Z" fill="#FFC0D0"/>
</svg>
