<svg width="1110" height="158" viewBox="0 0 1110 158" fill="none" xmlns="http://www.w3.org/2000/svg">
<rect x="135" y="16" width="80" height="80" rx="40" fill="#F4F5F7"/>
<path d="M181 54H187L184 50L181 54ZM181 58H187L184 62L181 58Z" fill="#FFCEA1"/>
<path d="M164 44H170V68H164C163.735 68 163.48 67.8946 163.293 67.7071C163.105 67.5196 163 67.2652 163 67V45C163 44.7348 163.105 44.4804 163.293 44.2929C163.48 44.1054 163.735 44 164 44Z" fill="#FF7900"/>
<path d="M172 44H178C178.265 44 178.52 44.1054 178.707 44.2929C178.895 44.4804 179 44.7348 179 45V67C179 67.2652 178.895 67.5196 178.707 67.7071C178.52 67.8946 178.265 68 178 68H172V44Z" fill="#FFC0D0"/>
<path d="M98.4544 124.185C97.9572 121.074 95.5211 119.256 92.4458 119.256C88.6816 119.256 85.9047 122.075 85.9047 126.727C85.9047 131.379 88.6674 134.199 92.4458 134.199C95.6419 134.199 97.9785 132.196 98.4544 129.32L96.2385 129.312C95.862 131.173 94.2995 132.196 92.46 132.196C89.9672 132.196 88.085 130.286 88.085 126.727C88.085 123.197 89.96 121.259 92.4672 121.259C94.3208 121.259 95.8762 122.303 96.2385 124.185H98.4544ZM100.91 134H103.034V127.338C103.034 125.918 104.134 124.888 105.605 124.888C106.017 124.888 106.336 124.973 106.592 125.101L107.274 123.325C106.911 123.084 106.443 122.928 105.846 122.928C104.553 122.928 103.474 123.652 103.076 124.824H102.963V123.091H100.91V134ZM113.151 134.22C115.53 134.22 117.213 133.048 117.696 131.273L115.686 130.911C115.303 131.94 114.379 132.466 113.172 132.466C111.354 132.466 110.132 131.287 110.075 129.185H117.831V128.432C117.831 124.49 115.473 122.949 113.002 122.949C109.962 122.949 107.959 125.264 107.959 128.616C107.959 132.004 109.933 134.22 113.151 134.22ZM110.083 127.594C110.168 126.045 111.29 124.703 113.016 124.703C114.664 124.703 115.743 125.925 115.75 127.594H110.083ZM124.271 134.213C126.26 134.213 127.041 132.999 127.425 132.303H127.602V134H129.676V123.091H127.552V124.859H127.425C127.041 124.185 126.317 122.949 124.285 122.949C121.65 122.949 119.711 125.03 119.711 128.567C119.711 132.097 121.622 134.213 124.271 134.213ZM124.74 132.402C122.844 132.402 121.856 130.733 121.856 128.545C121.856 126.379 122.822 124.753 124.74 124.753C126.594 124.753 127.588 126.266 127.588 128.545C127.588 130.839 126.572 132.402 124.74 132.402ZM137.799 123.091H135.562V120.477H133.438V123.091H131.84V124.795H133.438V131.237C133.431 133.219 134.944 134.178 136.62 134.142C137.295 134.135 137.749 134.007 137.998 133.915L137.615 132.161C137.472 132.189 137.21 132.253 136.869 132.253C136.18 132.253 135.562 132.026 135.562 130.797V124.795H137.799V123.091ZM144.733 134.22C147.112 134.22 148.795 133.048 149.278 131.273L147.268 130.911C146.885 131.94 145.961 132.466 144.754 132.466C142.936 132.466 141.714 131.287 141.657 129.185H149.413V128.432C149.413 124.49 147.055 122.949 144.584 122.949C141.544 122.949 139.541 125.264 139.541 128.616C139.541 132.004 141.515 134.22 144.733 134.22ZM141.665 127.594C141.75 126.045 142.872 124.703 144.598 124.703C146.246 124.703 147.325 125.925 147.332 127.594H141.665ZM158.461 134L159.797 130.151H165.479L166.807 134H169.136L163.902 119.455H161.366L156.132 134H158.461ZM160.436 128.304L162.581 122.097H162.694L164.839 128.304H160.436ZM176.53 119.455V134H178.618V123.467H178.753L183.042 133.979H184.775L189.065 123.474H189.2V134H191.288V119.455H188.625L183.994 130.761H183.824L179.193 119.455H176.53ZM199.01 134.22C201.389 134.22 203.073 133.048 203.556 131.273L201.546 130.911C201.162 131.94 200.239 132.466 199.031 132.466C197.213 132.466 195.992 131.287 195.935 129.185H203.691V128.432C203.691 124.49 201.333 122.949 198.861 122.949C195.821 122.949 193.818 125.264 193.818 128.616C193.818 132.004 195.793 134.22 199.01 134.22ZM195.942 127.594C196.027 126.045 197.149 124.703 198.875 124.703C200.523 124.703 201.602 125.925 201.61 127.594H195.942ZM206.047 134H208.17V127.274C208.17 125.804 209.2 124.781 210.407 124.781C211.586 124.781 212.403 125.562 212.403 126.749V134H214.52V127.047C214.52 125.733 215.322 124.781 216.707 124.781C217.829 124.781 218.753 125.406 218.753 126.884V134H220.876V126.685C220.876 124.192 219.484 122.949 217.51 122.949C215.94 122.949 214.761 123.702 214.236 124.866H214.122C213.646 123.673 212.645 122.949 211.189 122.949C209.747 122.949 208.675 123.666 208.22 124.866H208.085V123.091H206.047V134ZM228.318 134.22C231.393 134.22 233.403 131.969 233.403 128.595C233.403 125.2 231.393 122.949 228.318 122.949C225.242 122.949 223.232 125.2 223.232 128.595C223.232 131.969 225.242 134.22 228.318 134.22ZM228.325 132.438C226.315 132.438 225.377 130.683 225.377 128.588C225.377 126.5 226.315 124.724 228.325 124.724C230.32 124.724 231.258 126.5 231.258 128.588C231.258 130.683 230.32 132.438 228.325 132.438ZM235.773 134H237.897V127.338C237.897 125.918 238.998 124.888 240.468 124.888C240.88 124.888 241.199 124.973 241.455 125.101L242.137 123.325C241.775 123.084 241.306 122.928 240.709 122.928C239.417 122.928 238.337 123.652 237.939 124.824H237.826V123.091H235.773V134ZM243.703 134H245.827V123.091H243.703V134ZM244.775 121.408C245.507 121.408 246.118 120.839 246.118 120.143C246.118 119.447 245.507 118.872 244.775 118.872C244.037 118.872 243.433 119.447 243.433 120.143C243.433 120.839 244.037 121.408 244.775 121.408ZM252.767 134.213C254.756 134.213 255.537 132.999 255.921 132.303H256.098V134H258.172V123.091H256.048V124.859H255.921C255.537 124.185 254.813 122.949 252.781 122.949C250.146 122.949 248.208 125.03 248.208 128.567C248.208 132.097 250.118 134.213 252.767 134.213ZM253.236 132.402C251.34 132.402 250.352 130.733 250.352 128.545C250.352 126.379 251.318 124.753 253.236 124.753C255.09 124.753 256.084 126.266 256.084 128.545C256.084 130.839 255.068 132.402 253.236 132.402ZM261.203 119.455V131.457C261.203 133.183 262.091 134.107 263.93 134.078C264.498 134.071 264.953 133.979 265.251 133.886L264.868 132.189C264.719 132.232 264.569 132.281 264.2 132.288C263.518 132.31 263.327 131.955 263.327 131.017V119.455H261.203Z" fill="#18191F"/>
<rect x="515" y="16" width="80" height="80" rx="40" fill="#F4F5F7"/>
<path d="M548 45H545C544.735 45 544.48 45.1054 544.293 45.2929C544.105 45.4804 544 45.7348 544 46V66C544 66.2652 544.105 66.5196 544.293 66.7071C544.48 66.8946 544.735 67 545 67H548V45Z" fill="#FFCEA1"/>
<path d="M550 67H560V45H550V67ZM555 63C554.735 63 554.48 62.8946 554.293 62.7071C554.105 62.5196 554 62.2652 554 62C554 61.7348 554.105 61.4804 554.293 61.2929C554.48 61.1054 554.735 61 555 61C555.265 61 555.52 61.1054 555.707 61.2929C555.895 61.4804 556 61.7348 556 62C556 62.2652 555.895 62.5196 555.707 62.7071C555.52 62.8946 555.265 63 555 63ZM555 49C555.265 49 555.52 49.1054 555.707 49.2929C555.895 49.4804 556 49.7348 556 50C556 50.2652 555.895 50.5196 555.707 50.7071C555.52 50.8946 555.265 51 555 51C554.735 51 554.48 50.8946 554.293 50.7071C554.105 50.5196 554 50.2652 554 50C554 49.7348 554.105 49.4804 554.293 49.2929C554.48 49.1054 554.735 49 555 49ZM555 55C555.265 55 555.52 55.1054 555.707 55.2929C555.895 55.4804 556 55.7348 556 56C556 56.2652 555.895 56.5196 555.707 56.7071C555.52 56.8946 555.265 57 555 57C554.735 57 554.48 56.8946 554.293 56.7071C554.105 56.5196 554 56.2652 554 56C554 55.7348 554.105 55.4804 554.293 55.2929C554.48 55.1054 554.735 55 555 55Z" fill="#FF7900"/>
<path d="M565 45H562V67H565C565.265 67 565.52 66.8946 565.707 66.7071C565.895 66.5196 566 66.2652 566 66V46C566 45.7348 565.895 45.4804 565.707 45.2929C565.52 45.1054 565.265 45 565 45Z" fill="#FFC0D0"/>
<path d="M448.833 134L450.168 130.151H455.85L457.178 134H459.507L454.273 119.455H451.737L446.503 134H448.833ZM450.807 128.304L452.952 122.097H453.066L455.21 128.304H450.807ZM465.345 134.213C467.334 134.213 468.115 132.999 468.499 132.303H468.676V134H470.75V119.455H468.627V124.859H468.499C468.115 124.185 467.391 122.949 465.36 122.949C462.725 122.949 460.786 125.03 460.786 128.567C460.786 132.097 462.696 134.213 465.345 134.213ZM465.814 132.402C463.918 132.402 462.931 130.733 462.931 128.545C462.931 126.379 463.896 124.753 465.814 124.753C467.668 124.753 468.662 126.266 468.662 128.545C468.662 130.839 467.646 132.402 465.814 132.402ZM477.865 134.213C479.854 134.213 480.635 132.999 481.018 132.303H481.196V134H483.27V119.455H481.146V124.859H481.018C480.635 124.185 479.91 122.949 477.879 122.949C475.244 122.949 473.305 125.03 473.305 128.567C473.305 132.097 475.216 134.213 477.865 134.213ZM478.334 132.402C476.437 132.402 475.45 130.733 475.45 128.545C475.45 126.379 476.416 124.753 478.334 124.753C480.187 124.753 481.182 126.266 481.182 128.545C481.182 130.839 480.166 132.402 478.334 132.402ZM501.118 119.455V128.844C501.118 130.818 499.754 132.239 497.538 132.239C495.329 132.239 493.959 130.818 493.959 128.844V119.455H491.764V129.021C491.764 132.075 494.051 134.241 497.538 134.241C501.025 134.241 503.319 132.075 503.319 129.021V119.455H501.118ZM508.463 127.523C508.463 125.783 509.529 124.788 511.006 124.788C512.448 124.788 513.321 125.733 513.321 127.317V134H515.445V127.061C515.445 124.362 513.96 122.949 511.73 122.949C510.09 122.949 509.017 123.709 508.513 124.866H508.378V123.091H506.34V134H508.463V127.523ZM518.293 119.455V131.457C518.293 133.183 519.181 134.107 521.02 134.078C521.588 134.071 522.043 133.979 522.341 133.886L521.958 132.189C521.808 132.232 521.659 132.281 521.29 132.288C520.608 132.31 520.416 131.955 520.416 131.017V119.455H518.293ZM523.742 134H525.866V123.091H523.742V134ZM524.814 121.408C525.546 121.408 526.157 120.839 526.157 120.143C526.157 119.447 525.546 118.872 524.814 118.872C524.076 118.872 523.472 119.447 523.472 120.143C523.472 120.839 524.076 121.408 524.814 121.408ZM528.722 134H530.846V127.274C530.846 125.804 531.876 124.781 533.083 124.781C534.262 124.781 535.079 125.562 535.079 126.749V134H537.195V127.047C537.195 125.733 537.998 124.781 539.383 124.781C540.505 124.781 541.428 125.406 541.428 126.884V134H543.552V126.685C543.552 124.192 542.16 122.949 540.186 122.949C538.616 122.949 537.437 123.702 536.911 124.866H536.798C536.322 123.673 535.32 122.949 533.865 122.949C532.423 122.949 531.35 123.666 530.896 124.866H530.761V123.091H528.722V134ZM546.398 134H548.522V123.091H546.398V134ZM547.471 121.408C548.202 121.408 548.813 120.839 548.813 120.143C548.813 119.447 548.202 118.872 547.471 118.872C546.732 118.872 546.128 119.447 546.128 120.143C546.128 120.839 546.732 121.408 547.471 121.408ZM556.471 123.091H554.234V120.477H552.11V123.091H550.512V124.795H552.11V131.237C552.103 133.219 553.616 134.178 555.292 134.142C555.967 134.135 556.421 134.007 556.67 133.915L556.286 132.161C556.144 132.189 555.882 132.253 555.541 132.253C554.852 132.253 554.234 132.026 554.234 130.797V124.795H556.471V123.091ZM563.405 134.22C565.784 134.22 567.467 133.048 567.95 131.273L565.94 130.911C565.557 131.94 564.633 132.466 563.426 132.466C561.608 132.466 560.386 131.287 560.329 129.185H568.085V128.432C568.085 124.49 565.727 122.949 563.256 122.949C560.216 122.949 558.213 125.264 558.213 128.616C558.213 132.004 560.187 134.22 563.405 134.22ZM560.336 127.594C560.422 126.045 561.544 124.703 563.27 124.703C564.917 124.703 565.997 125.925 566.004 127.594H560.336ZM574.525 134.213C576.514 134.213 577.295 132.999 577.678 132.303H577.856V134H579.93V119.455H577.806V124.859H577.678C577.295 124.185 576.57 122.949 574.539 122.949C571.904 122.949 569.965 125.03 569.965 128.567C569.965 132.097 571.876 134.213 574.525 134.213ZM574.994 132.402C573.097 132.402 572.11 130.733 572.11 128.545C572.11 126.379 573.076 124.753 574.994 124.753C576.847 124.753 577.842 126.266 577.842 128.545C577.842 130.839 576.826 132.402 574.994 132.402ZM600.505 124.185C600.008 121.074 597.572 119.256 594.497 119.256C590.732 119.256 587.955 122.075 587.955 126.727C587.955 131.379 590.718 134.199 594.497 134.199C597.693 134.199 600.029 132.196 600.505 129.32L598.289 129.312C597.913 131.173 596.35 132.196 594.511 132.196C592.018 132.196 590.136 130.286 590.136 126.727C590.136 123.197 592.011 121.259 594.518 121.259C596.372 121.259 597.927 122.303 598.289 124.185H600.505ZM607.556 134.22C610.631 134.22 612.641 131.969 612.641 128.595C612.641 125.2 610.631 122.949 607.556 122.949C604.481 122.949 602.471 125.2 602.471 128.595C602.471 131.969 604.481 134.22 607.556 134.22ZM607.563 132.438C605.553 132.438 604.616 130.683 604.616 128.588C604.616 126.5 605.553 124.724 607.563 124.724C609.559 124.724 610.496 126.5 610.496 128.588C610.496 130.683 609.559 132.438 607.563 132.438ZM617.135 127.523C617.135 125.783 618.2 124.788 619.678 124.788C621.119 124.788 621.993 125.733 621.993 127.317V134H624.117V127.061C624.117 124.362 622.632 122.949 620.402 122.949C618.762 122.949 617.689 123.709 617.185 124.866H617.05V123.091H615.012V134H617.135V127.523ZM632.057 123.091H629.82V120.477H627.696V123.091H626.098V124.795H627.696V131.237C627.689 133.219 629.202 134.178 630.878 134.142C631.553 134.135 632.007 134.007 632.256 133.915L631.872 132.161C631.73 132.189 631.468 132.253 631.127 132.253C630.438 132.253 629.82 132.026 629.82 130.797V124.795H632.057V123.091ZM638.991 134.22C641.37 134.22 643.053 133.048 643.536 131.273L641.526 130.911C641.143 131.94 640.219 132.466 639.012 132.466C637.194 132.466 635.972 131.287 635.915 129.185H643.671V128.432C643.671 124.49 641.313 122.949 638.841 122.949C635.802 122.949 633.799 125.264 633.799 128.616C633.799 132.004 635.773 134.22 638.991 134.22ZM635.922 127.594C636.008 126.045 637.13 124.703 638.856 124.703C640.503 124.703 641.583 125.925 641.59 127.594H635.922ZM648.151 127.523C648.151 125.783 649.216 124.788 650.693 124.788C652.135 124.788 653.009 125.733 653.009 127.317V134H655.132V127.061C655.132 124.362 653.648 122.949 651.418 122.949C649.777 122.949 648.705 123.709 648.2 124.866H648.066V123.091H646.027V134H648.151V127.523ZM663.073 123.091H660.835V120.477H658.712V123.091H657.114V124.795H658.712V131.237C658.705 133.219 660.218 134.178 661.894 134.142C662.568 134.135 663.023 134.007 663.271 133.915L662.888 132.161C662.746 132.189 662.483 132.253 662.142 132.253C661.453 132.253 660.835 132.026 660.835 130.797V124.795H663.073V123.091Z" fill="#18191F"/>
<rect x="895" y="16" width="80" height="80" rx="40" fill="#F4F5F7"/>
<path d="M932 54H925C924.735 54 924.48 53.8946 924.293 53.7071C924.105 53.5196 924 53.2652 924 53V46C924 45.7348 924.105 45.4804 924.293 45.2929C924.48 45.1054 924.735 45 925 45H932C932.265 45 932.52 45.1054 932.707 45.2929C932.895 45.4804 933 45.7348 933 46V53C933 53.2652 932.895 53.5196 932.707 53.7071C932.52 53.8946 932.265 54 932 54Z" fill="#FF7900"/>
<path d="M932 67H925C924.735 67 924.48 66.8946 924.293 66.7071C924.105 66.5196 924 66.2652 924 66V59C924 58.7348 924.105 58.4804 924.293 58.2929C924.48 58.1054 924.735 58 925 58H932C932.265 58 932.52 58.1054 932.707 58.2929C932.895 58.4804 933 58.7348 933 59V66C933 66.2652 932.895 66.5196 932.707 66.7071C932.52 66.8946 932.265 67 932 67Z" fill="#FF7900"/>
<path d="M936 46H946V48H936V46Z" fill="#FFC0D0"/>
<path d="M946 59H936V61H946V59Z" fill="#FFC0D0"/>
<path d="M946 64H936V66H946V64Z" fill="#FFCEA1"/>
<path d="M946 51H936V53H946V51Z" fill="#FFCEA1"/>
<path d="M840.059 123.276H842.175C842.111 120.946 840.051 119.256 837.097 119.256C834.178 119.256 831.941 120.925 831.941 123.432C831.941 125.456 833.39 126.642 835.726 127.274L837.445 127.743C839 128.155 840.201 128.666 840.201 129.959C840.201 131.379 838.844 132.317 836.976 132.317C835.286 132.317 833.88 131.564 833.752 129.98H831.55C831.692 132.615 833.73 134.241 836.99 134.241C840.407 134.241 842.374 132.445 842.374 129.98C842.374 127.359 840.037 126.344 838.191 125.889L836.77 125.52C835.634 125.229 834.121 124.696 834.128 123.304C834.128 122.068 835.257 121.152 837.047 121.152C838.716 121.152 839.902 121.933 840.059 123.276ZM846.95 127.523C846.95 125.783 848.05 124.788 849.563 124.788C851.026 124.788 851.9 125.719 851.9 127.317V134H854.023V127.061C854.023 124.341 852.532 122.949 850.288 122.949C848.59 122.949 847.567 123.688 847.056 124.866H846.921V119.455H844.826V134H846.95V127.523ZM860.941 134.213C862.93 134.213 863.711 132.999 864.094 132.303H864.272V134H866.346V123.091H864.222V124.859H864.094C863.711 124.185 862.987 122.949 860.955 122.949C858.32 122.949 856.381 125.03 856.381 128.567C856.381 132.097 858.292 134.213 860.941 134.213ZM861.41 132.402C859.513 132.402 858.526 130.733 858.526 128.545C858.526 126.379 859.492 124.753 861.41 124.753C863.263 124.753 864.258 126.266 864.258 128.545C864.258 130.839 863.242 132.402 861.41 132.402ZM869.377 134H871.5V127.338C871.5 125.918 872.601 124.888 874.071 124.888C874.483 124.888 874.803 124.973 875.059 125.101L875.74 123.325C875.378 123.084 874.909 122.928 874.313 122.928C873.02 122.928 871.941 123.652 871.543 124.824H871.429V123.091H869.377V134ZM881.618 134.22C883.997 134.22 885.68 133.048 886.163 131.273L884.153 130.911C883.77 131.94 882.846 132.466 881.639 132.466C879.821 132.466 878.599 131.287 878.542 129.185H886.298V128.432C886.298 124.49 883.94 122.949 881.468 122.949C878.429 122.949 876.426 125.264 876.426 128.616C876.426 132.004 878.4 134.22 881.618 134.22ZM878.549 127.594C878.635 126.045 879.757 124.703 881.483 124.703C883.13 124.703 884.21 125.925 884.217 127.594H878.549ZM893.4 121.344H897.931V134H900.119V121.344H904.657V119.455H893.4V121.344ZM909.098 127.523C909.098 125.783 910.199 124.788 911.712 124.788C913.175 124.788 914.048 125.719 914.048 127.317V134H916.172V127.061C916.172 124.341 914.68 122.949 912.436 122.949C910.739 122.949 909.716 123.688 909.205 124.866H909.07V119.455H906.974V134H909.098V127.523ZM923.707 134.22C926.087 134.22 927.77 133.048 928.253 131.273L926.243 130.911C925.859 131.94 924.936 132.466 923.729 132.466C921.911 132.466 920.689 131.287 920.632 129.185H928.388V128.432C928.388 124.49 926.03 122.949 923.558 122.949C920.518 122.949 918.516 125.264 918.516 128.616C918.516 132.004 920.49 134.22 923.707 134.22ZM920.639 127.594C920.724 126.045 921.847 124.703 923.572 124.703C925.22 124.703 926.3 125.925 926.307 127.594H920.639ZM930.744 134H932.868V123.091H930.744V134ZM931.816 121.408C932.548 121.408 933.159 120.839 933.159 120.143C933.159 119.447 932.548 118.872 931.816 118.872C931.078 118.872 930.474 119.447 930.474 120.143C930.474 120.839 931.078 121.408 931.816 121.408ZM935.724 134H937.848V127.338C937.848 125.918 938.949 124.888 940.419 124.888C940.831 124.888 941.151 124.973 941.406 125.101L942.088 123.325C941.726 123.084 941.257 122.928 940.661 122.928C939.368 122.928 938.288 123.652 937.891 124.824H937.777V123.091H935.724V134ZM949.118 134H957.903V132.111H951.312V119.455H949.118V134ZM960.236 134H962.36V123.091H960.236V134ZM961.309 121.408C962.04 121.408 962.651 120.839 962.651 120.143C962.651 119.447 962.04 118.872 961.309 118.872C960.57 118.872 959.966 119.447 959.966 120.143C959.966 120.839 960.57 121.408 961.309 121.408ZM970.408 123.091H968.058V122.111C968.058 121.145 968.455 120.619 969.492 120.619C969.933 120.619 970.245 120.719 970.444 120.783L970.941 119.064C970.643 118.95 970.025 118.773 969.165 118.773C967.44 118.773 965.927 119.781 965.927 121.827V123.091H964.244V124.795H965.927V134H968.058V124.795H970.408V123.091ZM976.871 134.22C979.251 134.22 980.934 133.048 981.417 131.273L979.407 130.911C979.023 131.94 978.1 132.466 976.893 132.466C975.075 132.466 973.853 131.287 973.796 129.185H981.552V128.432C981.552 124.49 979.194 122.949 976.722 122.949C973.683 122.949 971.68 125.264 971.68 128.616C971.68 132.004 973.654 134.22 976.871 134.22ZM973.803 127.594C973.888 126.045 975.011 124.703 976.737 124.703C978.384 124.703 979.464 125.925 979.471 127.594H973.803ZM997.305 123.276H999.421C999.357 120.946 997.298 119.256 994.343 119.256C991.424 119.256 989.187 120.925 989.187 123.432C989.187 125.456 990.636 126.642 992.972 127.274L994.691 127.743C996.246 128.155 997.447 128.666 997.447 129.959C997.447 131.379 996.09 132.317 994.222 132.317C992.532 132.317 991.126 131.564 990.998 129.98H988.796C988.938 132.615 990.977 134.241 994.237 134.241C997.653 134.241 999.62 132.445 999.62 129.98C999.62 127.359 997.283 126.344 995.437 125.889L994.016 125.52C992.88 125.229 991.367 124.696 991.374 123.304C991.374 122.068 992.504 121.152 994.293 121.152C995.962 121.152 997.148 121.933 997.305 123.276ZM1007.16 123.091H1004.93V120.477H1002.8V123.091H1001.21V124.795H1002.8V131.237C1002.8 133.219 1004.31 134.178 1005.99 134.142C1006.66 134.135 1007.11 134.007 1007.36 133.915L1006.98 132.161C1006.84 132.189 1006.57 132.253 1006.23 132.253C1005.55 132.253 1004.93 132.026 1004.93 130.797V124.795H1007.16V123.091ZM1013.99 134.22C1017.07 134.22 1019.08 131.969 1019.08 128.595C1019.08 125.2 1017.07 122.949 1013.99 122.949C1010.92 122.949 1008.91 125.2 1008.91 128.595C1008.91 131.969 1010.92 134.22 1013.99 134.22ZM1014 132.438C1011.99 132.438 1011.05 130.683 1011.05 128.588C1011.05 126.5 1011.99 124.724 1014 124.724C1015.99 124.724 1016.93 126.5 1016.93 128.588C1016.93 130.683 1015.99 132.438 1014 132.438ZM1021.45 134H1023.57V127.338C1023.57 125.918 1024.67 124.888 1026.14 124.888C1026.55 124.888 1026.87 124.973 1027.13 125.101L1027.81 123.325C1027.45 123.084 1026.98 122.928 1026.38 122.928C1025.09 122.928 1024.01 123.652 1023.61 124.824H1023.5V123.091H1021.45V134ZM1030.89 138.091C1032.65 138.091 1033.76 137.175 1034.39 135.456L1038.9 123.112L1036.61 123.091L1033.84 131.557H1033.73L1030.97 123.091H1028.69L1032.68 134.142L1032.42 134.866C1031.88 136.315 1031.12 136.436 1029.96 136.116L1029.45 137.857C1029.7 137.97 1030.26 138.091 1030.89 138.091Z" fill="#18191F"/>
<path opacity="0.4" fill-rule="evenodd" clip-rule="evenodd" d="M239 55C239 54.4477 239.448 54 240 54H356C356.552 54 357 54.4477 357 55C357 55.5523 356.552 56 356 56H240C239.448 56 239 55.5523 239 55Z" fill="#D6B1FF"/>
<path fill-rule="evenodd" clip-rule="evenodd" d="M362.529 50.5286C362.268 50.789 362.268 51.2111 362.529 51.4714L366.057 55L362.529 58.5286C362.268 58.789 362.268 59.2111 362.529 59.4714C362.789 59.7318 363.211 59.7318 363.472 59.4714L367.472 55.4714C367.732 55.2111 367.732 54.789 367.472 54.5286L363.472 50.5286C363.211 50.2683 362.789 50.2683 362.529 50.5286Z" fill="#D6B1FF"/>
<path opacity="0.4" fill-rule="evenodd" clip-rule="evenodd" d="M373 55C373 54.4477 373.448 54 374 54H490C490.552 54 491 54.4477 491 55C491 55.5523 490.552 56 490 56H374C373.448 56 373 55.5523 373 55Z" fill="#D6B1FF"/>
<path opacity="0.4" fill-rule="evenodd" clip-rule="evenodd" d="M619 55C619 54.4477 619.448 54 620 54H736C736.552 54 737 54.4477 737 55C737 55.5523 736.552 56 736 56H620C619.448 56 619 55.5523 619 55Z" fill="#D6B1FF"/>
<path fill-rule="evenodd" clip-rule="evenodd" d="M742.529 50.5286C742.268 50.789 742.268 51.2111 742.529 51.4714L746.057 55L742.529 58.5286C742.268 58.789 742.268 59.2111 742.529 59.4714C742.789 59.7318 743.211 59.7318 743.472 59.4714L747.472 55.4714C747.732 55.2111 747.732 54.789 747.472 54.5286L743.472 50.5286C743.211 50.2683 742.789 50.2683 742.529 50.5286Z" fill="#D6B1FF"/>
<path opacity="0.4" fill-rule="evenodd" clip-rule="evenodd" d="M753 55C753 54.4477 753.448 54 754 54H870C870.552 54 871 54.4477 871 55C871 55.5523 870.552 56 870 56H754C753.448 56 753 55.5523 753 55Z" fill="#D6B1FF"/>
</svg>
