<svg width="22" height="22" viewBox="0 0 22 22" fill="none" xmlns="http://www.w3.org/2000/svg">
<g clip-path="url(#clip0_632_3417)">
<path d="M11.0001 4.48926C10.6442 4.48926 10.3556 4.77784 10.3556 5.13379V21.3559C10.3556 21.7119 10.6442 22.0004 11.0001 22.0004C11.3561 22.0004 11.6447 21.7119 11.6447 21.3559V5.13379C11.6447 4.77784 11.3561 4.48926 11.0001 4.48926Z" fill="#F5F5F5"/>
<path d="M11.0001 4.48926V22.0004C11.3561 22.0004 11.6447 21.7119 11.6447 21.3559V5.13379C11.6447 4.77784 11.3561 4.48926 11.0001 4.48926Z" fill="#F5F5F5"/>
<path d="M9.59567 12.581C9.27099 12.727 8.88947 12.5821 8.74355 12.2574L5.8625 5.8484C5.71653 5.52373 5.86142 5.14221 6.1861 4.99629C6.51077 4.85032 6.89229 4.99521 7.03821 5.31988L9.91926 11.7289C10.0652 12.0535 9.92029 12.435 9.59567 12.581Z" fill="#F5F5F5"/>
<path d="M9.59577 12.581L6.18616 4.99629C6.51083 4.85032 6.89235 4.99521 7.03827 5.31988L9.91933 11.7289C10.0653 12.0536 9.9204 12.4351 9.59577 12.581Z" fill="#F5F5F5"/>
<path d="M15.8105 4.99531C15.4858 4.84935 15.1043 4.99424 14.9584 5.31891L12.0773 11.7279C11.9314 12.0526 12.0763 12.4341 12.4009 12.58C12.7256 12.7259 13.1071 12.5811 13.2531 12.2564L16.1341 5.84742C16.2801 5.52275 16.1352 5.14123 15.8105 4.99531Z" fill="#F5F5F5"/>
<path d="M15.8105 4.99561L12.4009 12.5804C12.7256 12.7263 13.1071 12.5814 13.253 12.2568L16.134 5.84776C16.2801 5.52305 16.1352 5.14153 15.8105 4.99561Z" fill="#F5F5F5"/>
<path d="M7.00547 0.411571C6.91644 0.213914 6.73404 0.0742659 6.52001 0.0399339C6.30594 0.00547295 6.08904 0.081055 5.9426 0.240899L4.66479 1.63554L2.77357 1.66841C2.55683 1.67214 2.35651 1.78464 2.24045 1.96768C2.12439 2.15073 2.10811 2.37988 2.1971 2.57754L3.15075 4.69461C3.44001 5.33682 3.96204 5.82791 4.62071 6.07747C4.92454 6.19259 5.24058 6.24991 5.55605 6.24991C5.92442 6.24991 6.29202 6.17166 6.63792 6.01581C7.96359 5.41868 8.5563 3.85436 7.95917 2.52868L7.00547 0.411571Z" fill="#76797F"/>
<path d="M19.7596 1.96771C19.6435 1.78462 19.4432 1.67217 19.2265 1.66843L17.3353 1.63556L16.0575 0.240881C15.911 0.0810807 15.6942 0.00549864 15.48 0.0399166C15.2661 0.0742916 15.0836 0.21394 14.9946 0.411553L14.0409 2.52867C13.4438 3.85434 14.0365 5.41866 15.3621 6.0158H15.3621C15.7081 6.17164 16.0755 6.24989 16.444 6.24989C16.7594 6.24989 17.0755 6.19257 17.3793 6.07746C18.038 5.82789 18.56 5.3368 18.8493 4.69463L19.803 2.57752C19.8919 2.37991 19.8757 2.15076 19.7596 1.96771Z" fill="#76797F"/>
<path d="M13.3545 0.106303C13.1735 -0.0128924 12.9456 -0.0332166 12.7464 0.0523771L11.009 0.799131L9.27141 0.0523771C9.07229 -0.0332166 8.83592 -0.0129783 8.65494 0.106303C8.47391 0.225541 8.35742 0.427752 8.35742 0.644529V2.96647C8.35742 4.42045 9.54602 5.60334 11 5.60334C12.454 5.60334 13.6426 4.42045 13.6426 2.96647V0.644572C13.6426 0.427795 13.5355 0.225541 13.3545 0.106303Z" fill="#76797F"/>
<path d="M13.3545 0.106277C13.1735 -0.0129179 12.9456 -0.0332422 12.7464 0.0523516L11.009 0.799106L11 5.60331C12.454 5.60331 13.6426 4.42043 13.6426 2.96645V0.644547C13.6426 0.42777 13.5355 0.225516 13.3545 0.106277Z" fill="#76797F"/>
<path d="M17.3891 7.52684C17.2679 7.35943 17.0737 7.26172 16.867 7.26172H5.10888C4.90216 7.26172 4.70802 7.35939 4.58681 7.52684C4.46564 7.69424 4.43203 7.90896 4.49657 8.10532L5.09728 9.93287C5.78705 12.0315 6.79682 14.0003 8.09847 15.7847L8.70614 16.6177L8.71125 20.1991C8.71176 20.5547 9.00017 20.8398 9.35578 20.8398H12.6257C12.9816 20.8398 13.2773 20.5569 13.2773 20.2009V16.617L13.8809 15.7845C15.1827 13.9999 16.1906 12.0309 16.8803 9.93248L17.4802 8.10532C17.5447 7.90891 17.5103 7.69424 17.3891 7.52684Z" fill="white"/>
<path d="M17.3892 7.52684C17.268 7.35943 17.0738 7.26172 16.8671 7.26172H11V20.8398H12.6257C12.9817 20.8398 13.2773 20.5569 13.2773 20.2009V16.617L13.881 15.7845C15.1828 13.9999 16.1907 12.0309 16.8804 9.93248L17.4802 8.10532C17.5448 7.90891 17.5104 7.69424 17.3892 7.52684Z" fill="white"/>
<path d="M13.4297 15.7695H8.54626C8.19031 15.7695 7.90173 16.0581 7.90173 16.4141C7.90173 16.77 8.19031 17.0586 8.54626 17.0586H13.4297C13.7856 17.0586 14.0742 16.77 14.0742 16.4141C14.0742 16.0581 13.7856 15.7695 13.4297 15.7695Z" fill="white"/>
<path d="M13.4297 15.7695H11V17.0586H13.4297C13.7857 17.0586 14.0742 16.77 14.0742 16.4141C14.0742 16.0581 13.7857 15.7695 13.4297 15.7695Z" fill="white"/>
</g>
<defs>
<clipPath id="clip0_632_3417">
<rect width="22" height="22" fill="white"/>
</clipPath>
</defs>
</svg>
