<svg width="365" height="382" viewBox="0 0 365 382" fill="none" xmlns="http://www.w3.org/2000/svg">
<path fill-rule="evenodd" clip-rule="evenodd" d="M-74.5215 143.08L-111.903 236.441C-114.762 243.58 -111.291 251.685 -104.152 254.543L-10.7916 291.925C-3.65227 294.783 4.45261 291.313 7.31119 284.174L44.6927 190.813C47.5513 183.674 44.0811 175.569 36.9418 172.711L-56.4187 135.329C-63.558 132.47 -71.6629 135.941 -74.5215 143.08ZM-113.339 235.865C-116.516 243.798 -112.66 252.803 -104.727 255.98L-11.3667 293.361C-3.43411 296.537 5.5713 292.682 8.7475 284.749L46.129 191.388C49.3052 183.456 45.4494 174.45 37.5169 171.274L-55.8436 133.893C-63.7762 130.717 -72.7816 134.572 -75.9578 142.505L-113.339 235.865ZM-127.429 275.221L-164.81 368.582C-167.669 375.721 -164.199 383.826 -157.059 386.684L-63.6988 424.066C-56.5595 426.925 -48.4547 423.454 -45.5961 416.315L-8.21458 322.955C-5.356 315.815 -8.82621 307.71 -15.9655 304.852L-109.326 267.47C-116.465 264.612 -124.57 268.082 -127.429 275.221ZM-166.247 368.007C-169.423 375.939 -165.567 384.945 -157.634 388.121L-64.274 425.502C-56.3414 428.678 -47.336 424.823 -44.1598 416.89L-6.77827 323.53C-3.60208 315.597 -7.45786 306.592 -15.3904 303.415L-108.751 266.034C-116.683 262.858 -125.689 266.714 -128.865 274.646L-166.247 368.007ZM4.71086 328.132L-32.6707 421.492C-35.5292 428.632 -32.059 436.737 -24.9197 439.595L68.4408 476.977C75.5801 479.835 83.685 476.365 86.5435 469.226L123.925 375.865C126.784 368.726 123.313 360.621 116.174 357.762L22.8136 320.381C15.6743 317.522 7.56943 320.993 4.71086 328.132ZM-34.107 420.917C-37.2832 428.85 -33.4274 437.855 -25.4948 441.031L67.8657 478.413C75.7982 481.589 84.8037 477.733 87.9798 469.801L125.361 376.44C128.538 368.508 124.682 359.502 116.749 356.326L23.3887 318.945C15.4562 315.768 6.45075 319.624 3.27455 327.557L-34.107 420.917ZM99.4705 474.399L136.852 381.038C139.711 373.899 147.815 370.429 154.955 373.287L248.315 410.669C255.455 413.527 258.925 421.632 256.066 428.772L218.685 522.132C215.826 529.271 207.721 532.742 200.582 529.883L107.221 492.501C100.082 489.643 96.6119 481.538 99.4705 474.399ZM106.646 493.938C98.7138 490.762 94.858 481.756 98.0342 473.824L135.416 380.463C138.592 372.531 147.597 368.675 155.53 371.851L248.89 409.233C256.823 412.409 260.679 421.414 257.502 429.347L220.121 522.707C216.945 530.64 207.939 534.496 200.007 531.319L106.646 493.938ZM20.2393 289.35L57.6208 195.99C60.4794 188.85 68.5843 185.38 75.7236 188.239L169.084 225.62C176.223 228.479 179.694 236.584 176.835 243.723L139.454 337.084C136.595 344.223 128.49 347.693 121.351 344.834L27.9903 307.453C20.851 304.594 17.3807 296.489 20.2393 289.35ZM27.4152 308.889C19.4826 305.713 15.6268 296.708 18.803 288.775L56.1845 195.415C59.3607 187.482 68.3661 183.626 76.2987 186.802L169.659 224.184C177.592 227.36 181.448 236.366 178.271 244.298L140.89 337.659C137.714 345.591 128.708 349.447 120.776 346.271L27.4152 308.889ZM189.762 248.9L152.381 342.26C149.522 349.4 152.992 357.504 160.131 360.363L253.492 397.745C260.631 400.603 268.736 397.133 271.595 389.994L308.976 296.633C311.835 289.494 308.365 281.389 301.225 278.53L207.865 241.149C200.726 238.29 192.621 241.761 189.762 248.9ZM150.944 341.685C147.768 349.618 151.624 358.623 159.556 361.799L252.917 399.181C260.849 402.357 269.855 398.501 273.031 390.569L310.413 297.208C313.589 289.276 309.733 280.27 301.8 277.094L208.44 239.713C200.507 236.536 191.502 240.392 188.326 248.325L150.944 341.685ZM-58.9916 104.301L-21.6101 10.9409C-18.7515 3.80162 -10.6466 0.331393 -3.50731 3.18997L89.8532 40.5715C96.9925 43.4301 100.463 51.5349 97.6041 58.6743L60.2226 152.035C57.364 159.174 49.2592 162.644 42.1198 159.786L-51.2407 122.404C-58.3799 119.546 -61.8502 111.441 -58.9916 104.301ZM-51.8158 123.84C-59.7483 120.664 -63.6041 111.659 -60.4279 103.726L-23.0464 10.3658C-19.8702 2.43326 -10.8648 -1.42252 -2.93222 1.75367L90.4283 39.1352C98.3608 42.3114 102.217 51.3168 99.0404 59.2493L61.6589 152.61C58.4827 160.542 49.4773 164.398 41.5447 161.222L-51.8158 123.84ZM110.53 63.8478L73.1482 157.208C70.2896 164.348 73.7598 172.452 80.8991 175.311L174.26 212.693C181.399 215.551 189.504 212.081 192.362 204.942L229.744 111.581C232.602 104.442 229.132 96.337 221.993 93.4784L128.632 56.0969C121.493 53.2383 113.388 56.7085 110.53 63.8478ZM71.7118 156.633C68.5357 164.566 72.3914 173.571 80.324 176.747L173.685 214.129C181.617 217.305 190.622 213.449 193.799 205.517L231.18 112.156C234.356 104.224 230.501 95.2183 222.568 92.0421L129.208 54.6606C121.275 51.4844 112.27 55.3402 109.093 63.2727L71.7118 156.633ZM205.289 210.118L242.671 116.758C245.53 109.619 253.634 106.148 260.774 109.007L354.134 146.389C361.273 149.247 364.744 157.352 361.885 164.491L324.504 257.852C321.645 264.991 313.54 268.461 306.401 265.603L213.04 228.221C205.901 225.363 202.431 217.258 205.289 210.118ZM212.465 229.658C204.533 226.481 200.677 217.476 203.853 209.543L241.235 116.183C244.411 108.25 253.416 104.395 261.349 107.571L354.709 144.952C362.642 148.128 366.498 157.134 363.321 165.066L325.94 258.427C322.764 266.359 313.758 270.215 305.826 267.039L212.465 229.658Z" fill="#FFEFE0"/>
</svg>
