<svg width="574" height="310" viewBox="0 0 574 310" fill="none" xmlns="http://www.w3.org/2000/svg">
<path fill-rule="evenodd" clip-rule="evenodd" d="M158.341 117.353L94.8435 195.338C89.9878 201.301 90.8858 210.072 96.8493 214.927L174.834 278.425C180.797 283.281 189.568 282.383 194.424 276.42L257.922 198.435C262.777 192.472 261.879 183.701 255.916 178.845L177.931 115.347C171.968 110.492 163.197 111.39 158.341 117.353ZM93.6437 194.361C88.2485 200.987 89.2463 210.732 95.8724 216.127L173.857 279.625C180.483 285.02 190.228 284.023 195.623 277.396L259.121 199.412C264.517 192.786 263.519 183.041 256.893 177.645L178.908 114.148C172.282 108.752 162.537 109.75 157.142 116.376L93.6437 194.361ZM68.4692 227.732L4.97129 305.716C0.115593 311.68 1.01363 320.451 6.97712 325.306L84.9616 388.804C90.9251 393.66 99.6957 392.762 104.551 386.798L168.049 308.814C172.905 302.85 172.007 294.08 166.044 289.224L88.0591 225.726C82.0956 220.87 73.3249 221.768 68.4692 227.732ZM3.77153 304.739C-1.62369 311.366 -0.625867 321.111 6.00023 326.506L83.9847 390.004C90.6108 395.399 100.356 394.401 105.751 387.775L169.249 309.791C174.644 303.165 173.647 293.419 167.02 288.024L89.036 224.526C82.4099 219.131 72.6647 220.129 67.2695 226.755L3.77153 304.739ZM178.845 317.607L115.348 395.591C110.492 401.555 111.39 410.325 117.353 415.181L195.338 478.679C201.301 483.535 210.072 482.637 214.928 476.673L278.426 398.689C283.281 392.725 282.383 383.955 276.42 379.099L198.435 315.601C192.472 310.745 183.701 311.643 178.845 317.607ZM114.148 394.614C108.753 401.24 109.75 410.986 116.376 416.381L194.361 479.879C200.987 485.274 210.732 484.276 216.127 477.65L279.625 399.666C285.021 393.04 284.023 383.294 277.397 377.899L199.412 314.401C192.786 309.006 183.041 310.004 177.646 316.63L114.148 394.614ZM225.727 485.463L289.224 407.478C294.08 401.515 302.851 400.617 308.814 405.472L386.799 468.97C392.762 473.826 393.66 482.597 388.805 488.56L325.307 566.544C320.451 572.508 311.68 573.406 305.717 568.55L227.732 505.052C221.769 500.197 220.871 491.426 225.727 485.463ZM226.755 506.252C220.129 500.857 219.132 491.112 224.527 484.486L288.025 406.501C293.42 399.875 303.165 398.877 309.791 404.272L387.776 467.77C394.402 473.166 395.4 482.911 390.004 489.537L326.506 567.521C321.111 574.147 311.366 575.145 304.74 569.75L226.755 506.252ZM205.223 285.212L268.721 207.228C273.576 201.264 282.347 200.366 288.31 205.222L366.295 268.72C372.258 273.576 373.156 282.346 368.301 288.31L304.803 366.294C299.947 372.258 291.176 373.156 285.213 368.3L207.228 304.802C201.265 299.947 200.367 291.176 205.223 285.212ZM206.252 306.002C199.625 300.607 198.628 290.862 204.023 284.235L267.521 206.251C272.916 199.625 282.661 198.627 289.287 204.022L367.272 267.52C373.898 272.915 374.896 282.661 369.5 289.287L306.002 367.271C300.607 373.897 290.862 374.895 284.236 369.5L206.252 306.002ZM379.098 297.103L315.601 375.087C310.745 381.051 311.643 389.821 317.606 394.677L395.591 458.175C401.554 463.031 410.325 462.133 415.181 456.169L478.679 378.185C483.534 372.221 482.636 363.451 476.673 358.595L398.688 295.097C392.725 290.241 383.954 291.139 379.098 297.103ZM314.401 374.11C309.006 380.736 310.003 390.482 316.629 395.877L394.614 459.375C401.24 464.77 410.985 463.772 416.38 457.146L479.878 379.162C485.274 372.536 484.276 362.79 477.65 357.395L399.665 293.897C393.039 288.502 383.294 289.5 377.899 296.126L314.401 374.11ZM184.719 84.9621L248.217 6.9776C253.073 1.01412 261.843 0.116069 267.807 4.97177L345.791 68.4697C351.755 73.3254 352.653 82.0961 347.797 88.0596L284.299 166.044C279.443 172.008 270.673 172.906 264.709 168.05L186.725 104.552C180.761 99.6962 179.863 90.9255 184.719 84.9621ZM185.748 105.752C179.122 100.356 178.124 90.6113 183.519 83.9852L247.017 6.00071C252.412 -0.625387 262.158 -1.6232 268.784 3.77202L346.768 67.2699C353.394 72.6652 354.392 82.4104 348.997 89.0365L285.499 167.021C280.104 173.647 270.358 174.645 263.732 169.25L185.748 105.752ZM358.594 96.849L295.096 174.833C290.241 180.797 291.139 189.568 297.102 194.423L375.087 257.921C381.05 262.777 389.821 261.879 394.677 255.915L458.175 177.931C463.03 171.967 462.132 163.197 456.169 158.341L378.184 94.8431C372.221 89.9874 363.45 90.8855 358.594 96.849ZM293.897 173.857C288.501 180.483 289.499 190.228 296.125 195.623L374.11 259.121C380.736 264.516 390.481 263.518 395.876 256.892L459.374 178.908C464.769 172.282 463.772 162.537 457.146 157.141L379.161 93.6434C372.535 88.2482 362.79 89.246 357.395 95.8721L293.897 173.857ZM405.474 264.708L468.972 186.724C473.828 180.76 482.599 179.862 488.562 184.718L566.547 248.216C572.51 253.072 573.408 261.842 568.552 267.806L505.055 345.79C500.199 351.754 491.428 352.652 485.465 347.796L407.48 284.298C401.517 279.442 400.619 270.672 405.474 264.708ZM406.503 285.498C399.877 280.103 398.879 270.358 404.275 263.731L467.773 185.747C473.168 179.121 482.913 178.123 489.539 183.518L567.524 247.016C574.15 252.411 575.147 262.157 569.752 268.783L506.254 346.767C500.859 353.393 491.114 354.391 484.488 348.996L406.503 285.498Z" fill="#FFEFE0"/>
</svg>
